<svg width="14" height="14" viewBox="0 0 14 14" fill="none" xmlns="http://www.w3.org/2000/svg">
<path d="M7.00023 0.863617C5.78657 0.863617 4.60017 1.22351 3.59105 1.89778C2.58193 2.57205 1.79541 3.53042 1.33097 4.6517C0.86652 5.77297 0.744999 7.00679 0.981772 8.19712C1.21855 9.38746 1.80298 10.4809 2.66116 11.339C3.51935 12.1972 4.61274 12.7817 5.80308 13.0184C6.99342 13.2552 8.22724 13.1337 9.34851 12.6692C10.4698 12.2048 11.4282 11.4183 12.1024 10.4092C12.7767 9.40004 13.1366 8.21364 13.1366 6.99998C13.1348 5.37308 12.4877 3.81334 11.3373 2.66294C10.1869 1.51255 8.62713 0.865452 7.00023 0.863617ZM7.00023 11.7727C6.05627 11.7727 5.13351 11.4928 4.34864 10.9684C3.56377 10.4439 2.95204 9.69852 2.5908 8.82642C2.22957 7.95432 2.13505 6.99469 2.31921 6.06887C2.50336 5.14305 2.95792 4.29263 3.6254 3.62515C4.29288 2.95767 5.1433 2.50312 6.06911 2.31896C6.99493 2.1348 7.95457 2.22932 8.82667 2.59056C9.69877 2.95179 10.4442 3.56352 10.9686 4.3484C11.493 5.13327 11.773 6.05602 11.773 6.99998C11.7715 8.26534 11.2682 9.47847 10.3735 10.3732C9.47871 11.268 8.26559 11.7713 7.00023 11.7727ZM9.50023 8.13634C9.49967 8.61838 9.30793 9.08052 8.96708 9.42138C8.62622 9.76223 8.16409 9.95397 7.68204 9.95452V10.1818C7.68204 10.3626 7.61021 10.536 7.48234 10.6639C7.35448 10.7918 7.18106 10.8636 7.00023 10.8636C6.8194 10.8636 6.64597 10.7918 6.51811 10.6639C6.39024 10.536 6.31841 10.3626 6.31841 10.1818V9.95452H5.63659C5.45576 9.95452 5.28234 9.88269 5.15447 9.75482C5.02661 9.62696 4.95477 9.45354 4.95477 9.27271C4.95477 9.09188 5.02661 8.91846 5.15447 8.79059C5.28234 8.66272 5.45576 8.59089 5.63659 8.59089H7.68204C7.8026 8.59089 7.91821 8.543 8.00346 8.45776C8.0887 8.37251 8.13659 8.2569 8.13659 8.13634C8.13659 8.01579 8.0887 7.90017 8.00346 7.81493C7.91821 7.72969 7.8026 7.6818 7.68204 7.6818H6.31841C5.8362 7.6818 5.37373 7.49024 5.03276 7.14926C4.69178 6.80829 4.50023 6.34583 4.50023 5.86362C4.50023 5.3814 4.69178 4.91894 5.03276 4.57797C5.37373 4.23699 5.8362 4.04543 6.31841 4.04543V3.81816C6.31841 3.63733 6.39024 3.46391 6.51811 3.33604C6.64597 3.20818 6.8194 3.13634 7.00023 3.13634C7.18106 3.13634 7.35448 3.20818 7.48234 3.33604C7.61021 3.46391 7.68204 3.63733 7.68204 3.81816V4.04543H8.36386C8.54469 4.04543 8.71811 4.11727 8.84598 4.24513C8.97385 4.373 9.04568 4.54642 9.04568 4.72725C9.04568 4.90808 8.97385 5.08151 8.84598 5.20937C8.71811 5.33724 8.54469 5.40907 8.36386 5.40907H6.31841C6.19786 5.40907 6.08224 5.45696 5.997 5.5422C5.91175 5.62745 5.86386 5.74306 5.86386 5.86362C5.86386 5.98417 5.91175 6.09978 5.997 6.18503C6.08224 6.27027 6.19786 6.31816 6.31841 6.31816H7.68204C8.16409 6.31872 8.62622 6.51045 8.96708 6.85131C9.30793 7.19216 9.49967 7.6543 9.50023 8.13634Z" fill="white"/>
</svg>
