<svg width="16" height="16" viewBox="0 0 16 16" fill="none" xmlns="http://www.w3.org/2000/svg">
<path d="M8.00023 1.86362C6.78657 1.86362 5.60017 2.22351 4.59105 2.89778C3.58193 3.57205 2.79541 4.53042 2.33097 5.6517C1.86652 6.77297 1.745 8.00679 1.98177 9.19712C2.21855 10.3875 2.80298 11.4809 3.66116 12.339C4.51935 13.1972 5.61274 13.7817 6.80308 14.0184C7.99342 14.2552 9.22724 14.1337 10.3485 13.6692C11.4698 13.2048 12.4282 12.4183 13.1024 11.4092C13.7767 10.4 14.1366 9.21364 14.1366 7.99998C14.1348 6.37308 13.4877 4.81334 12.3373 3.66294C11.1869 2.51255 9.62713 1.86545 8.00023 1.86362ZM8.00023 12.7727C7.05627 12.7727 6.13351 12.4928 5.34864 11.9684C4.56377 11.4439 3.95204 10.6985 3.5908 9.82642C3.22957 8.95432 3.13505 7.99469 3.31921 7.06887C3.50336 6.14305 3.95792 5.29263 4.6254 4.62515C5.29288 3.95767 6.1433 3.50312 7.06911 3.31896C7.99493 3.1348 8.95457 3.22932 9.82667 3.59056C10.6988 3.95179 11.4442 4.56352 11.9686 5.3484C12.493 6.13327 12.773 7.05602 12.773 7.99998C12.7715 9.26534 12.2682 10.4785 11.3735 11.3732C10.4787 12.268 9.26559 12.7713 8.00023 12.7727ZM10.5002 9.13634C10.4997 9.61838 10.3079 10.0805 9.96708 10.4214C9.62622 10.7622 9.16409 10.954 8.68204 10.9545V11.1818C8.68204 11.3626 8.61021 11.536 8.48234 11.6639C8.35448 11.7918 8.18106 11.8636 8.00023 11.8636C7.8194 11.8636 7.64597 11.7918 7.51811 11.6639C7.39024 11.536 7.31841 11.3626 7.31841 11.1818V10.9545H6.63659C6.45576 10.9545 6.28234 10.8827 6.15447 10.7548C6.02661 10.627 5.95477 10.4535 5.95477 10.2727C5.95477 10.0919 6.02661 9.91846 6.15447 9.79059C6.28234 9.66272 6.45576 9.59089 6.63659 9.59089H8.68204C8.8026 9.59089 8.91821 9.543 9.00346 9.45776C9.0887 9.37251 9.13659 9.2569 9.13659 9.13634C9.13659 9.01579 9.0887 8.90017 9.00346 8.81493C8.91821 8.72969 8.8026 8.6818 8.68204 8.6818H7.31841C6.8362 8.6818 6.37373 8.49024 6.03276 8.14926C5.69178 7.80829 5.50023 7.34583 5.50023 6.86362C5.50023 6.3814 5.69178 5.91894 6.03276 5.57797C6.37373 5.23699 6.8362 5.04543 7.31841 5.04543V4.81816C7.31841 4.63733 7.39024 4.46391 7.51811 4.33604C7.64597 4.20818 7.8194 4.13634 8.00023 4.13634C8.18106 4.13634 8.35448 4.20818 8.48234 4.33604C8.61021 4.46391 8.68204 4.63733 8.68204 4.81816V5.04543H9.36386C9.54469 5.04543 9.71811 5.11727 9.84598 5.24513C9.97385 5.373 10.0457 5.54642 10.0457 5.72725C10.0457 5.90808 9.97385 6.08151 9.84598 6.20937C9.71811 6.33724 9.54469 6.40907 9.36386 6.40907H7.31841C7.19786 6.40907 7.08224 6.45696 6.997 6.5422C6.91175 6.62745 6.86386 6.74306 6.86386 6.86362C6.86386 6.98417 6.91175 7.09978 6.997 7.18503C7.08224 7.27027 7.19786 7.31816 7.31841 7.31816H8.68204C9.16409 7.31872 9.62622 7.51045 9.96708 7.85131C10.3079 8.19216 10.4997 8.6543 10.5002 9.13634Z" fill="white"/>
</svg>
