<svg width="97" height="27" viewBox="0 0 97 27" fill="none" xmlns="http://www.w3.org/2000/svg">
<path d="M128 20C106.64 20 85.7589 26.3341 67.9984 38.2013C50.2379 50.0685 36.3953 66.9358 28.221 86.6702C20.0467 106.405 17.908 128.12 22.0752 149.07C26.2424 170.02 36.5284 189.263 51.6325 204.368C66.7365 219.472 85.9803 229.758 106.93 233.925C127.88 238.092 149.595 235.953 169.33 227.779C189.064 219.605 205.932 205.762 217.799 188.002C229.666 170.241 236 149.36 236 128C235.968 99.3664 224.579 71.9146 204.332 51.6675C184.085 31.4205 156.634 20.0318 128 20ZM128 212C111.386 212 95.1458 207.073 81.3321 197.843C67.5184 188.613 56.7519 175.494 50.3941 160.145C44.0363 144.796 42.3729 127.907 45.614 111.612C48.8552 95.318 56.8554 80.3506 68.603 68.603C80.3506 56.8554 95.318 48.8552 111.612 45.614C127.907 42.3729 144.796 44.0364 160.145 50.3941C175.494 56.7519 188.613 67.5184 197.843 81.3321C207.073 95.1458 212 111.386 212 128C211.976 150.271 203.119 171.623 187.371 187.371C171.623 203.119 150.271 211.976 128 212ZM172 148C172 156.487 168.629 164.626 162.627 170.627C156.626 176.629 148.487 180 140 180V184C140 187.183 138.736 190.235 136.485 192.485C134.235 194.736 131.183 196 128 196C124.817 196 121.765 194.736 119.515 192.485C117.264 190.235 116 187.183 116 184V180H104C100.817 180 97.7651 178.736 95.5147 176.485C93.2643 174.235 92 171.183 92 168C92 164.817 93.2643 161.765 95.5147 159.515C97.7651 157.264 100.817 156 104 156H140C142.122 156 144.157 155.157 145.657 153.657C147.157 152.157 148 150.122 148 148C148 145.878 147.157 143.843 145.657 142.343C144.157 140.843 142.122 140 140 140H116C107.513 140 99.3737 136.629 93.3726 130.627C87.3714 124.626 84 116.487 84 108C84 99.5131 87.3714 91.3737 93.3726 85.3726C99.3737 79.3714 107.513 76 116 76V72C116 68.8174 117.264 65.7652 119.515 63.5147C121.765 61.2643 124.817 60 128 60C131.183 60 134.235 61.2643 136.485 63.5147C138.736 65.7652 140 68.8174 140 72V76H152C155.183 76 158.235 77.2643 160.485 79.5147C162.736 81.7652 164 84.8174 164 88C164 91.1826 162.736 94.2348 160.485 96.4853C158.235 98.7357 155.183 100 152 100H116C113.878 100 111.843 100.843 110.343 102.343C108.843 103.843 108 105.878 108 108C108 110.122 108.843 112.157 110.343 113.657C111.843 115.157 113.878 116 116 116H140C148.487 116 156.626 119.371 162.627 125.373C168.629 131.374 172 139.513 172 148Z" fill="black"/>
<path d="M128 20C106.64 20 85.7589 26.3341 67.9984 38.2013C50.2379 50.0685 36.3953 66.9358 28.221 86.6702C20.0467 106.405 17.908 128.12 22.0752 149.07C26.2424 170.02 36.5284 189.263 51.6325 204.368C66.7365 219.472 85.9803 229.758 106.93 233.925C127.88 238.092 149.595 235.953 169.33 227.779C189.064 219.605 205.932 205.762 217.799 188.002C229.666 170.241 236 149.36 236 128C235.968 99.3664 224.579 71.9146 204.332 51.6675C184.085 31.4205 156.634 20.0318 128 20ZM128 212C111.386 212 95.1458 207.073 81.3321 197.843C67.5184 188.613 56.7519 175.494 50.3941 160.145C44.0363 144.796 42.3729 127.907 45.614 111.612C48.8552 95.318 56.8554 80.3506 68.603 68.603C80.3506 56.8554 95.318 48.8552 111.612 45.614C127.907 42.3729 144.796 44.0364 160.145 50.3941C175.494 56.7519 188.613 67.5184 197.843 81.3321C207.073 95.1458 212 111.386 212 128C211.976 150.271 203.119 171.623 187.371 187.371C171.623 203.119 150.271 211.976 128 212ZM172 148C172 156.487 168.629 164.626 162.627 170.627C156.626 176.629 148.487 180 140 180V184C140 187.183 138.736 190.235 136.485 192.485C134.235 194.736 131.183 196 128 196C124.817 196 121.765 194.736 119.515 192.485C117.264 190.235 116 187.183 116 184V180H104C100.817 180 97.7651 178.736 95.5147 176.485C93.2643 174.235 92 171.183 92 168C92 164.817 93.2643 161.765 95.5147 159.515C97.7651 157.264 100.817 156 104 156H140C142.122 156 144.157 155.157 145.657 153.657C147.157 152.157 148 150.122 148 148C148 145.878 147.157 143.843 145.657 142.343C144.157 140.843 142.122 140 140 140H116C107.513 140 99.3737 136.629 93.3726 130.627C87.3714 124.626 84 116.487 84 108C84 99.5131 87.3714 91.3737 93.3726 85.3726C99.3737 79.3714 107.513 76 116 76V72C116 68.8174 117.264 65.7652 119.515 63.5147C121.765 61.2643 124.817 60 128 60C131.183 60 134.235 61.2643 136.485 63.5147C138.736 65.7652 140 68.8174 140 72V76H152C155.183 76 158.235 77.2643 160.485 79.5147C162.736 81.7652 164 84.8174 164 88C164 91.1826 162.736 94.2348 160.485 96.4853C158.235 98.7357 155.183 100 152 100H116C113.878 100 111.843 100.843 110.343 102.343C108.843 103.843 108 105.878 108 108C108 110.122 108.843 112.157 110.343 113.657C111.843 115.157 113.878 116 116 116H140C148.487 116 156.626 119.371 162.627 125.373C168.629 131.374 172 139.513 172 148Z" fill="black"/>
<circle cx="10" cy="10" r="10" fill="#FF9C27"/>
<path d="M10.0002 3.86362C8.78657 3.86362 7.60017 4.22351 6.59105 4.89778C5.58193 5.57205 4.79541 6.53042 4.33097 7.6517C3.86652 8.77297 3.745 10.0068 3.98177 11.1971C4.21855 12.3875 4.80298 13.4809 5.66116 14.339C6.51935 15.1972 7.61274 15.7817 8.80308 16.0184C9.99342 16.2552 11.2272 16.1337 12.3485 15.6692C13.4698 15.2048 14.4282 14.4183 15.1024 13.4092C15.7767 12.4 16.1366 11.2136 16.1366 9.99998C16.1348 8.37308 15.4877 6.81334 14.3373 5.66294C13.1869 4.51255 11.6271 3.86545 10.0002 3.86362ZM10.0002 14.7727C9.05627 14.7727 8.13351 14.4928 7.34864 13.9684C6.56377 13.4439 5.95204 12.6985 5.5908 11.8264C5.22957 10.9543 5.13505 9.99469 5.31921 9.06887C5.50336 8.14305 5.95792 7.29263 6.6254 6.62515C7.29288 5.95767 8.1433 5.50312 9.06911 5.31896C9.99493 5.1348 10.9546 5.22932 11.8267 5.59056C12.6988 5.95179 13.4442 6.56352 13.9686 7.3484C14.493 8.13327 14.773 9.05602 14.773 9.99998C14.7715 11.2653 14.2682 12.4785 13.3735 13.3732C12.4787 14.268 11.2656 14.7713 10.0002 14.7727ZM12.5002 11.1363C12.4997 11.6184 12.3079 12.0805 11.9671 12.4214C11.6262 12.7622 11.1641 12.954 10.682 12.9545V13.1818C10.682 13.3626 10.6102 13.536 10.4823 13.6639C10.3545 13.7918 10.1811 13.8636 10.0002 13.8636C9.8194 13.8636 9.64597 13.7918 9.51811 13.6639C9.39024 13.536 9.31841 13.3626 9.31841 13.1818V12.9545H8.63659C8.45576 12.9545 8.28234 12.8827 8.15447 12.7548C8.02661 12.627 7.95477 12.4535 7.95477 12.2727C7.95477 12.0919 8.02661 11.9185 8.15447 11.7906C8.28234 11.6627 8.45576 11.5909 8.63659 11.5909H10.682C10.8026 11.5909 10.9182 11.543 11.0035 11.4578C11.0887 11.3725 11.1366 11.2569 11.1366 11.1363C11.1366 11.0158 11.0887 10.9002 11.0035 10.8149C10.9182 10.7297 10.8026 10.6818 10.682 10.6818H9.31841C8.8362 10.6818 8.37373 10.4902 8.03276 10.1493C7.69178 9.80829 7.50023 9.34583 7.50023 8.86362C7.50023 8.3814 7.69178 7.91894 8.03276 7.57797C8.37373 7.23699 8.8362 7.04543 9.31841 7.04543V6.81816C9.31841 6.63733 9.39024 6.46391 9.51811 6.33604C9.64597 6.20818 9.8194 6.13634 10.0002 6.13634C10.1811 6.13634 10.3545 6.20818 10.4823 6.33604C10.6102 6.46391 10.682 6.63733 10.682 6.81816V7.04543H11.3639C11.5447 7.04543 11.7181 7.11727 11.846 7.24513C11.9738 7.373 12.0457 7.54642 12.0457 7.72725C12.0457 7.90808 11.9738 8.08151 11.846 8.20937C11.7181 8.33724 11.5447 8.40907 11.3639 8.40907H9.31841C9.19786 8.40907 9.08224 8.45696 8.997 8.5422C8.91175 8.62745 8.86386 8.74306 8.86386 8.86362C8.86386 8.98417 8.91175 9.09978 8.997 9.18503C9.08224 9.27027 9.19786 9.31816 9.31841 9.31816H10.682C11.1641 9.31872 11.6262 9.51045 11.9671 9.85131C12.3079 10.1922 12.4997 10.6543 12.5002 11.1363Z" fill="white"/>
</svg>
