<svg width="18" height="24" viewBox="0 0 18 24" fill="none" xmlns="http://www.w3.org/2000/svg">
<mask id="path-1-outside-1_225_38668" maskUnits="userSpaceOnUse" x="-0.246582" y="-0.315186" width="18" height="24" fill="black">
<rect fill="white" x="-0.246582" y="-0.315186" width="18" height="24"/>
<path fill-rule="evenodd" clip-rule="evenodd" d="M4.8699 0.812779C4.79907 0.883146 4.74014 0.994535 4.73899 1.06037C4.73784 1.12615 4.73873 1.61893 4.74098 2.15539L4.74508 3.13083L2.88457 3.14574L1.02411 3.1607L0.888736 3.28705L0.753418 3.41345V5.11535V6.81725L0.888684 6.94365C1.0187 7.06515 1.05695 7.07062 1.8856 7.08652L2.74725 7.10309V12.0478V16.9926L1.8856 17.0091C1.05695 17.025 1.0187 17.0305 0.888684 17.152L0.753418 17.2784V18.9803V20.6822L0.888736 20.8086L1.02411 20.935L2.88457 20.9499L4.74508 20.9648L4.74098 21.9403C4.73873 22.4767 4.73784 22.9695 4.73899 23.0353C4.74014 23.1011 4.79907 23.2125 4.8699 23.2829L4.99866 23.4108H6.1787C7.35013 23.4108 7.35978 23.41 7.50591 23.2851L7.65314 23.1594L7.6692 22.0602L7.68525 20.961H8.20701H8.72876V22.058C8.72876 23.1532 8.72897 23.1552 8.85757 23.2829L8.98633 23.4108H10.1465C10.8419 23.4108 11.3471 23.3893 11.4076 23.3572C11.6329 23.2374 11.667 23.0574 11.667 21.9874V20.9758L12.3015 20.9389C13.7724 20.8534 14.4875 20.5734 15.4185 19.769C16.0988 19.1811 16.7358 18.1128 17.012 17.0965C17.1383 16.6315 17.1516 16.4939 17.1544 15.6195C17.1572 14.7668 17.1432 14.6009 17.0336 14.1861C16.6484 12.7289 16.103 11.6351 14.8637 11.0332L14.4138 10.8147L14.6448 10.5842C15.8521 9.38013 16.1408 7.64805 15.4185 5.94266C14.8468 4.59296 13.5543 3.55064 12.0754 3.24686L11.667 3.16299V2.12979C11.667 1.03681 11.6338 0.858752 11.4076 0.738502C11.3471 0.706342 10.8419 0.684814 10.1465 0.684814H8.98633L8.85757 0.812779C8.72897 0.940482 8.72876 0.942463 8.72876 2.03769V3.13464H8.20701H7.68525L7.6692 2.03545L7.65314 0.936208L7.50591 0.810537C7.35978 0.685701 7.35013 0.684814 6.1787 0.684814H4.99866L4.8699 0.812779ZM6.73493 2.73464V3.84618L6.87019 3.97258C7.00273 4.09638 7.02687 4.0993 8.06387 4.11566C8.74928 4.12656 9.19306 4.1116 9.32313 4.07329C9.63916 3.98019 9.67321 3.84081 9.67321 2.64113V1.62305H10.1979H10.7226V2.73464C10.7226 4.10242 10.6963 4.05358 11.474 4.12671C12.4015 4.21386 13.05 4.5105 13.6922 5.1412C14.1747 5.61511 14.4783 6.09027 14.6913 6.70513C14.8165 7.06666 14.8361 7.20531 14.8386 7.7476C14.841 8.26832 14.8214 8.43064 14.7219 8.71675C14.5691 9.15558 14.3307 9.52993 13.9734 9.89183C13.8645 10.0021 13.7087 10.1351 13.554 10.2548C13.2341 10.5026 12.7148 10.664 12.7176 11.0687C12.7196 11.3708 12.8526 11.4738 13.3496 11.5583C13.9265 11.6563 14.2418 11.7596 14.6519 11.9849C15.5556 12.4814 15.9997 13.61 16.1858 14.7495C16.2848 15.3552 16.2527 16.179 16.1081 16.7465C15.7141 18.2926 14.9854 19.3238 13.6157 19.769C13.1376 19.9244 13.0522 19.9351 12.0513 19.9653C11.0252 19.9964 10.9886 20.0012 10.8577 20.1234L10.7226 20.2495V21.361V22.4726H10.1979H9.67321V21.451C9.67321 20.263 9.63585 20.1144 9.31322 20.0194C9.19506 19.9846 8.7189 19.9696 8.06387 19.98C7.02687 19.9964 7.00273 19.9993 6.87019 20.1231L6.73493 20.2495V21.361V22.4726H6.21023H5.68554V21.4545C5.68554 20.2529 5.65143 20.1138 5.33557 20.0267C5.21253 19.9928 4.4683 19.9711 3.41624 19.971L1.69787 19.9707V18.9803V17.99L2.41932 17.9896C3.31691 17.9893 3.51624 17.9413 3.6172 17.7013C3.72859 17.4365 3.72859 6.65915 3.6172 6.39431C3.51624 6.15433 3.31691 6.10638 2.41932 6.10602L1.69787 6.1057V5.11535V4.12499L3.41624 4.12468C4.4683 4.12452 5.21253 4.10289 5.33557 4.06896C5.65143 3.98186 5.68554 3.84274 5.68554 2.64113V1.62305H6.21023H6.73493V2.73464ZM6.49881 6.16622C6.20803 6.32504 6.21265 6.29006 6.21139 8.33801L6.21036 10.0153C6.21028 10.1537 6.26544 10.2864 6.3636 10.3839C6.46183 10.4815 6.59468 10.5362 6.73315 10.5362H8.02195C9.61229 10.5362 9.90728 10.5027 10.3676 10.2694C11.2948 9.79952 11.7515 8.5966 11.3843 7.5917C11.0798 6.75845 10.4749 6.28641 9.55138 6.16132C9.00071 6.08673 6.63739 6.09048 6.49881 6.16622ZM9.859 7.21943C10.344 7.44383 10.6015 7.90059 10.5515 8.4482C10.517 8.82626 10.3529 9.13238 10.0865 9.3158C9.71639 9.57059 9.57336 9.59326 8.32212 9.59571L7.15468 9.598V8.34703V7.09606L8.37459 7.09658C9.54403 7.09705 9.60547 7.10215 9.859 7.21943ZM6.3668 12.7183C6.26659 12.8178 6.21023 12.9532 6.21023 13.0944V15.2529C6.21023 16.7849 6.22949 17.6676 6.26428 17.7322C6.39561 17.976 6.5112 17.99 8.40754 17.99C10.5414 17.99 10.8566 17.9573 11.438 17.6761C12.3626 17.2289 12.8717 16.3681 12.8732 15.2499C12.8748 14.054 12.2453 13.1376 11.1248 12.7047C10.8722 12.6071 10.7064 12.5987 8.68857 12.5814L6.74397 12.5647C6.60277 12.5634 6.46696 12.6188 6.3668 12.7183ZM10.9934 13.6783C11.3355 13.8452 11.6301 14.1454 11.791 14.4913C11.882 14.6868 11.9031 14.8304 11.9028 15.2534C11.9023 15.902 11.7869 16.1942 11.3808 16.5758C10.9469 16.9835 10.8507 16.9996 8.85039 16.9996H7.15468V15.2503V13.501L8.92552 13.5172L10.6964 13.5334L10.9934 13.6783Z"/>
</mask>
<path fill-rule="evenodd" clip-rule="evenodd" d="M4.8699 0.812779C4.79907 0.883146 4.74014 0.994535 4.73899 1.06037C4.73784 1.12615 4.73873 1.61893 4.74098 2.15539L4.74508 3.13083L2.88457 3.14574L1.02411 3.1607L0.888736 3.28705L0.753418 3.41345V5.11535V6.81725L0.888684 6.94365C1.0187 7.06515 1.05695 7.07062 1.8856 7.08652L2.74725 7.10309V12.0478V16.9926L1.8856 17.0091C1.05695 17.025 1.0187 17.0305 0.888684 17.152L0.753418 17.2784V18.9803V20.6822L0.888736 20.8086L1.02411 20.935L2.88457 20.9499L4.74508 20.9648L4.74098 21.9403C4.73873 22.4767 4.73784 22.9695 4.73899 23.0353C4.74014 23.1011 4.79907 23.2125 4.8699 23.2829L4.99866 23.4108H6.1787C7.35013 23.4108 7.35978 23.41 7.50591 23.2851L7.65314 23.1594L7.6692 22.0602L7.68525 20.961H8.20701H8.72876V22.058C8.72876 23.1532 8.72897 23.1552 8.85757 23.2829L8.98633 23.4108H10.1465C10.8419 23.4108 11.3471 23.3893 11.4076 23.3572C11.6329 23.2374 11.667 23.0574 11.667 21.9874V20.9758L12.3015 20.9389C13.7724 20.8534 14.4875 20.5734 15.4185 19.769C16.0988 19.1811 16.7358 18.1128 17.012 17.0965C17.1383 16.6315 17.1516 16.4939 17.1544 15.6195C17.1572 14.7668 17.1432 14.6009 17.0336 14.1861C16.6484 12.7289 16.103 11.6351 14.8637 11.0332L14.4138 10.8147L14.6448 10.5842C15.8521 9.38013 16.1408 7.64805 15.4185 5.94266C14.8468 4.59296 13.5543 3.55064 12.0754 3.24686L11.667 3.16299V2.12979C11.667 1.03681 11.6338 0.858752 11.4076 0.738502C11.3471 0.706342 10.8419 0.684814 10.1465 0.684814H8.98633L8.85757 0.812779C8.72897 0.940482 8.72876 0.942463 8.72876 2.03769V3.13464H8.20701H7.68525L7.6692 2.03545L7.65314 0.936208L7.50591 0.810537C7.35978 0.685701 7.35013 0.684814 6.1787 0.684814H4.99866L4.8699 0.812779ZM6.73493 2.73464V3.84618L6.87019 3.97258C7.00273 4.09638 7.02687 4.0993 8.06387 4.11566C8.74928 4.12656 9.19306 4.1116 9.32313 4.07329C9.63916 3.98019 9.67321 3.84081 9.67321 2.64113V1.62305H10.1979H10.7226V2.73464C10.7226 4.10242 10.6963 4.05358 11.474 4.12671C12.4015 4.21386 13.05 4.5105 13.6922 5.1412C14.1747 5.61511 14.4783 6.09027 14.6913 6.70513C14.8165 7.06666 14.8361 7.20531 14.8386 7.7476C14.841 8.26832 14.8214 8.43064 14.7219 8.71675C14.5691 9.15558 14.3307 9.52993 13.9734 9.89183C13.8645 10.0021 13.7087 10.1351 13.554 10.2548C13.2341 10.5026 12.7148 10.664 12.7176 11.0687C12.7196 11.3708 12.8526 11.4738 13.3496 11.5583C13.9265 11.6563 14.2418 11.7596 14.6519 11.9849C15.5556 12.4814 15.9997 13.61 16.1858 14.7495C16.2848 15.3552 16.2527 16.179 16.1081 16.7465C15.7141 18.2926 14.9854 19.3238 13.6157 19.769C13.1376 19.9244 13.0522 19.9351 12.0513 19.9653C11.0252 19.9964 10.9886 20.0012 10.8577 20.1234L10.7226 20.2495V21.361V22.4726H10.1979H9.67321V21.451C9.67321 20.263 9.63585 20.1144 9.31322 20.0194C9.19506 19.9846 8.7189 19.9696 8.06387 19.98C7.02687 19.9964 7.00273 19.9993 6.87019 20.1231L6.73493 20.2495V21.361V22.4726H6.21023H5.68554V21.4545C5.68554 20.2529 5.65143 20.1138 5.33557 20.0267C5.21253 19.9928 4.4683 19.9711 3.41624 19.971L1.69787 19.9707V18.9803V17.99L2.41932 17.9896C3.31691 17.9893 3.51624 17.9413 3.6172 17.7013C3.72859 17.4365 3.72859 6.65915 3.6172 6.39431C3.51624 6.15433 3.31691 6.10638 2.41932 6.10602L1.69787 6.1057V5.11535V4.12499L3.41624 4.12468C4.4683 4.12452 5.21253 4.10289 5.33557 4.06896C5.65143 3.98186 5.68554 3.84274 5.68554 2.64113V1.62305H6.21023H6.73493V2.73464ZM6.49881 6.16622C6.20803 6.32504 6.21265 6.29006 6.21139 8.33801L6.21036 10.0153C6.21028 10.1537 6.26544 10.2864 6.3636 10.3839C6.46183 10.4815 6.59468 10.5362 6.73315 10.5362H8.02195C9.61229 10.5362 9.90728 10.5027 10.3676 10.2694C11.2948 9.79952 11.7515 8.5966 11.3843 7.5917C11.0798 6.75845 10.4749 6.28641 9.55138 6.16132C9.00071 6.08673 6.63739 6.09048 6.49881 6.16622ZM9.859 7.21943C10.344 7.44383 10.6015 7.90059 10.5515 8.4482C10.517 8.82626 10.3529 9.13238 10.0865 9.3158C9.71639 9.57059 9.57336 9.59326 8.32212 9.59571L7.15468 9.598V8.34703V7.09606L8.37459 7.09658C9.54403 7.09705 9.60547 7.10215 9.859 7.21943ZM6.3668 12.7183C6.26659 12.8178 6.21023 12.9532 6.21023 13.0944V15.2529C6.21023 16.7849 6.22949 17.6676 6.26428 17.7322C6.39561 17.976 6.5112 17.99 8.40754 17.99C10.5414 17.99 10.8566 17.9573 11.438 17.6761C12.3626 17.2289 12.8717 16.3681 12.8732 15.2499C12.8748 14.054 12.2453 13.1376 11.1248 12.7047C10.8722 12.6071 10.7064 12.5987 8.68857 12.5814L6.74397 12.5647C6.60277 12.5634 6.46696 12.6188 6.3668 12.7183ZM10.9934 13.6783C11.3355 13.8452 11.6301 14.1454 11.791 14.4913C11.882 14.6868 11.9031 14.8304 11.9028 15.2534C11.9023 15.902 11.7869 16.1942 11.3808 16.5758C10.9469 16.9835 10.8507 16.9996 8.85039 16.9996H7.15468V15.2503V13.501L8.92552 13.5172L10.6964 13.5334L10.9934 13.6783Z" fill="#C4C4C4"/>
<path fill-rule="evenodd" clip-rule="evenodd" d="M4.8699 0.812779C4.79907 0.883146 4.74014 0.994535 4.73899 1.06037C4.73784 1.12615 4.73873 1.61893 4.74098 2.15539L4.74508 3.13083L2.88457 3.14574L1.02411 3.1607L0.888736 3.28705L0.753418 3.41345V5.11535V6.81725L0.888684 6.94365C1.0187 7.06515 1.05695 7.07062 1.8856 7.08652L2.74725 7.10309V12.0478V16.9926L1.8856 17.0091C1.05695 17.025 1.0187 17.0305 0.888684 17.152L0.753418 17.2784V18.9803V20.6822L0.888736 20.8086L1.02411 20.935L2.88457 20.9499L4.74508 20.9648L4.74098 21.9403C4.73873 22.4767 4.73784 22.9695 4.73899 23.0353C4.74014 23.1011 4.79907 23.2125 4.8699 23.2829L4.99866 23.4108H6.1787C7.35013 23.4108 7.35978 23.41 7.50591 23.2851L7.65314 23.1594L7.6692 22.0602L7.68525 20.961H8.20701H8.72876V22.058C8.72876 23.1532 8.72897 23.1552 8.85757 23.2829L8.98633 23.4108H10.1465C10.8419 23.4108 11.3471 23.3893 11.4076 23.3572C11.6329 23.2374 11.667 23.0574 11.667 21.9874V20.9758L12.3015 20.9389C13.7724 20.8534 14.4875 20.5734 15.4185 19.769C16.0988 19.1811 16.7358 18.1128 17.012 17.0965C17.1383 16.6315 17.1516 16.4939 17.1544 15.6195C17.1572 14.7668 17.1432 14.6009 17.0336 14.1861C16.6484 12.7289 16.103 11.6351 14.8637 11.0332L14.4138 10.8147L14.6448 10.5842C15.8521 9.38013 16.1408 7.64805 15.4185 5.94266C14.8468 4.59296 13.5543 3.55064 12.0754 3.24686L11.667 3.16299V2.12979C11.667 1.03681 11.6338 0.858752 11.4076 0.738502C11.3471 0.706342 10.8419 0.684814 10.1465 0.684814H8.98633L8.85757 0.812779C8.72897 0.940482 8.72876 0.942463 8.72876 2.03769V3.13464H8.20701H7.68525L7.6692 2.03545L7.65314 0.936208L7.50591 0.810537C7.35978 0.685701 7.35013 0.684814 6.1787 0.684814H4.99866L4.8699 0.812779ZM6.73493 2.73464V3.84618L6.87019 3.97258C7.00273 4.09638 7.02687 4.0993 8.06387 4.11566C8.74928 4.12656 9.19306 4.1116 9.32313 4.07329C9.63916 3.98019 9.67321 3.84081 9.67321 2.64113V1.62305H10.1979H10.7226V2.73464C10.7226 4.10242 10.6963 4.05358 11.474 4.12671C12.4015 4.21386 13.05 4.5105 13.6922 5.1412C14.1747 5.61511 14.4783 6.09027 14.6913 6.70513C14.8165 7.06666 14.8361 7.20531 14.8386 7.7476C14.841 8.26832 14.8214 8.43064 14.7219 8.71675C14.5691 9.15558 14.3307 9.52993 13.9734 9.89183C13.8645 10.0021 13.7087 10.1351 13.554 10.2548C13.2341 10.5026 12.7148 10.664 12.7176 11.0687C12.7196 11.3708 12.8526 11.4738 13.3496 11.5583C13.9265 11.6563 14.2418 11.7596 14.6519 11.9849C15.5556 12.4814 15.9997 13.61 16.1858 14.7495C16.2848 15.3552 16.2527 16.179 16.1081 16.7465C15.7141 18.2926 14.9854 19.3238 13.6157 19.769C13.1376 19.9244 13.0522 19.9351 12.0513 19.9653C11.0252 19.9964 10.9886 20.0012 10.8577 20.1234L10.7226 20.2495V21.361V22.4726H10.1979H9.67321V21.451C9.67321 20.263 9.63585 20.1144 9.31322 20.0194C9.19506 19.9846 8.7189 19.9696 8.06387 19.98C7.02687 19.9964 7.00273 19.9993 6.87019 20.1231L6.73493 20.2495V21.361V22.4726H6.21023H5.68554V21.4545C5.68554 20.2529 5.65143 20.1138 5.33557 20.0267C5.21253 19.9928 4.4683 19.9711 3.41624 19.971L1.69787 19.9707V18.9803V17.99L2.41932 17.9896C3.31691 17.9893 3.51624 17.9413 3.6172 17.7013C3.72859 17.4365 3.72859 6.65915 3.6172 6.39431C3.51624 6.15433 3.31691 6.10638 2.41932 6.10602L1.69787 6.1057V5.11535V4.12499L3.41624 4.12468C4.4683 4.12452 5.21253 4.10289 5.33557 4.06896C5.65143 3.98186 5.68554 3.84274 5.68554 2.64113V1.62305H6.21023H6.73493V2.73464ZM6.49881 6.16622C6.20803 6.32504 6.21265 6.29006 6.21139 8.33801L6.21036 10.0153C6.21028 10.1537 6.26544 10.2864 6.3636 10.3839C6.46183 10.4815 6.59468 10.5362 6.73315 10.5362H8.02195C9.61229 10.5362 9.90728 10.5027 10.3676 10.2694C11.2948 9.79952 11.7515 8.5966 11.3843 7.5917C11.0798 6.75845 10.4749 6.28641 9.55138 6.16132C9.00071 6.08673 6.63739 6.09048 6.49881 6.16622ZM9.859 7.21943C10.344 7.44383 10.6015 7.90059 10.5515 8.4482C10.517 8.82626 10.3529 9.13238 10.0865 9.3158C9.71639 9.57059 9.57336 9.59326 8.32212 9.59571L7.15468 9.598V8.34703V7.09606L8.37459 7.09658C9.54403 7.09705 9.60547 7.10215 9.859 7.21943ZM6.3668 12.7183C6.26659 12.8178 6.21023 12.9532 6.21023 13.0944V15.2529C6.21023 16.7849 6.22949 17.6676 6.26428 17.7322C6.39561 17.976 6.5112 17.99 8.40754 17.99C10.5414 17.99 10.8566 17.9573 11.438 17.6761C12.3626 17.2289 12.8717 16.3681 12.8732 15.2499C12.8748 14.054 12.2453 13.1376 11.1248 12.7047C10.8722 12.6071 10.7064 12.5987 8.68857 12.5814L6.74397 12.5647C6.60277 12.5634 6.46696 12.6188 6.3668 12.7183ZM10.9934 13.6783C11.3355 13.8452 11.6301 14.1454 11.791 14.4913C11.882 14.6868 11.9031 14.8304 11.9028 15.2534C11.9023 15.902 11.7869 16.1942 11.3808 16.5758C10.9469 16.9835 10.8507 16.9996 8.85039 16.9996H7.15468V15.2503V13.501L8.92552 13.5172L10.6964 13.5334L10.9934 13.6783Z" fill="url(#paint0_linear_225_38668)"/>
<path fill-rule="evenodd" clip-rule="evenodd" d="M4.8699 0.812779C4.79907 0.883146 4.74014 0.994535 4.73899 1.06037C4.73784 1.12615 4.73873 1.61893 4.74098 2.15539L4.74508 3.13083L2.88457 3.14574L1.02411 3.1607L0.888736 3.28705L0.753418 3.41345V5.11535V6.81725L0.888684 6.94365C1.0187 7.06515 1.05695 7.07062 1.8856 7.08652L2.74725 7.10309V12.0478V16.9926L1.8856 17.0091C1.05695 17.025 1.0187 17.0305 0.888684 17.152L0.753418 17.2784V18.9803V20.6822L0.888736 20.8086L1.02411 20.935L2.88457 20.9499L4.74508 20.9648L4.74098 21.9403C4.73873 22.4767 4.73784 22.9695 4.73899 23.0353C4.74014 23.1011 4.79907 23.2125 4.8699 23.2829L4.99866 23.4108H6.1787C7.35013 23.4108 7.35978 23.41 7.50591 23.2851L7.65314 23.1594L7.6692 22.0602L7.68525 20.961H8.20701H8.72876V22.058C8.72876 23.1532 8.72897 23.1552 8.85757 23.2829L8.98633 23.4108H10.1465C10.8419 23.4108 11.3471 23.3893 11.4076 23.3572C11.6329 23.2374 11.667 23.0574 11.667 21.9874V20.9758L12.3015 20.9389C13.7724 20.8534 14.4875 20.5734 15.4185 19.769C16.0988 19.1811 16.7358 18.1128 17.012 17.0965C17.1383 16.6315 17.1516 16.4939 17.1544 15.6195C17.1572 14.7668 17.1432 14.6009 17.0336 14.1861C16.6484 12.7289 16.103 11.6351 14.8637 11.0332L14.4138 10.8147L14.6448 10.5842C15.8521 9.38013 16.1408 7.64805 15.4185 5.94266C14.8468 4.59296 13.5543 3.55064 12.0754 3.24686L11.667 3.16299V2.12979C11.667 1.03681 11.6338 0.858752 11.4076 0.738502C11.3471 0.706342 10.8419 0.684814 10.1465 0.684814H8.98633L8.85757 0.812779C8.72897 0.940482 8.72876 0.942463 8.72876 2.03769V3.13464H8.20701H7.68525L7.6692 2.03545L7.65314 0.936208L7.50591 0.810537C7.35978 0.685701 7.35013 0.684814 6.1787 0.684814H4.99866L4.8699 0.812779ZM6.73493 2.73464V3.84618L6.87019 3.97258C7.00273 4.09638 7.02687 4.0993 8.06387 4.11566C8.74928 4.12656 9.19306 4.1116 9.32313 4.07329C9.63916 3.98019 9.67321 3.84081 9.67321 2.64113V1.62305H10.1979H10.7226V2.73464C10.7226 4.10242 10.6963 4.05358 11.474 4.12671C12.4015 4.21386 13.05 4.5105 13.6922 5.1412C14.1747 5.61511 14.4783 6.09027 14.6913 6.70513C14.8165 7.06666 14.8361 7.20531 14.8386 7.7476C14.841 8.26832 14.8214 8.43064 14.7219 8.71675C14.5691 9.15558 14.3307 9.52993 13.9734 9.89183C13.8645 10.0021 13.7087 10.1351 13.554 10.2548C13.2341 10.5026 12.7148 10.664 12.7176 11.0687C12.7196 11.3708 12.8526 11.4738 13.3496 11.5583C13.9265 11.6563 14.2418 11.7596 14.6519 11.9849C15.5556 12.4814 15.9997 13.61 16.1858 14.7495C16.2848 15.3552 16.2527 16.179 16.1081 16.7465C15.7141 18.2926 14.9854 19.3238 13.6157 19.769C13.1376 19.9244 13.0522 19.9351 12.0513 19.9653C11.0252 19.9964 10.9886 20.0012 10.8577 20.1234L10.7226 20.2495V21.361V22.4726H10.1979H9.67321V21.451C9.67321 20.263 9.63585 20.1144 9.31322 20.0194C9.19506 19.9846 8.7189 19.9696 8.06387 19.98C7.02687 19.9964 7.00273 19.9993 6.87019 20.1231L6.73493 20.2495V21.361V22.4726H6.21023H5.68554V21.4545C5.68554 20.2529 5.65143 20.1138 5.33557 20.0267C5.21253 19.9928 4.4683 19.9711 3.41624 19.971L1.69787 19.9707V18.9803V17.99L2.41932 17.9896C3.31691 17.9893 3.51624 17.9413 3.6172 17.7013C3.72859 17.4365 3.72859 6.65915 3.6172 6.39431C3.51624 6.15433 3.31691 6.10638 2.41932 6.10602L1.69787 6.1057V5.11535V4.12499L3.41624 4.12468C4.4683 4.12452 5.21253 4.10289 5.33557 4.06896C5.65143 3.98186 5.68554 3.84274 5.68554 2.64113V1.62305H6.21023H6.73493V2.73464ZM6.49881 6.16622C6.20803 6.32504 6.21265 6.29006 6.21139 8.33801L6.21036 10.0153C6.21028 10.1537 6.26544 10.2864 6.3636 10.3839C6.46183 10.4815 6.59468 10.5362 6.73315 10.5362H8.02195C9.61229 10.5362 9.90728 10.5027 10.3676 10.2694C11.2948 9.79952 11.7515 8.5966 11.3843 7.5917C11.0798 6.75845 10.4749 6.28641 9.55138 6.16132C9.00071 6.08673 6.63739 6.09048 6.49881 6.16622ZM9.859 7.21943C10.344 7.44383 10.6015 7.90059 10.5515 8.4482C10.517 8.82626 10.3529 9.13238 10.0865 9.3158C9.71639 9.57059 9.57336 9.59326 8.32212 9.59571L7.15468 9.598V8.34703V7.09606L8.37459 7.09658C9.54403 7.09705 9.60547 7.10215 9.859 7.21943ZM6.3668 12.7183C6.26659 12.8178 6.21023 12.9532 6.21023 13.0944V15.2529C6.21023 16.7849 6.22949 17.6676 6.26428 17.7322C6.39561 17.976 6.5112 17.99 8.40754 17.99C10.5414 17.99 10.8566 17.9573 11.438 17.6761C12.3626 17.2289 12.8717 16.3681 12.8732 15.2499C12.8748 14.054 12.2453 13.1376 11.1248 12.7047C10.8722 12.6071 10.7064 12.5987 8.68857 12.5814L6.74397 12.5647C6.60277 12.5634 6.46696 12.6188 6.3668 12.7183ZM10.9934 13.6783C11.3355 13.8452 11.6301 14.1454 11.791 14.4913C11.882 14.6868 11.9031 14.8304 11.9028 15.2534C11.9023 15.902 11.7869 16.1942 11.3808 16.5758C10.9469 16.9835 10.8507 16.9996 8.85039 16.9996H7.15468V15.2503V13.501L8.92552 13.5172L10.6964 13.5334L10.9934 13.6783Z" stroke="white" stroke-width="0.428793" mask="url(#path-1-outside-1_225_38668)"/>
<defs>
<linearGradient id="paint0_linear_225_38668" x1="3.00001" y1="4.58022" x2="18.8491" y2="15.1876" gradientUnits="userSpaceOnUse">
<stop stop-color="#00FFA3" stop-opacity="0.6"/>
<stop offset="1" stop-color="#4B48F1"/>
</linearGradient>
</defs>
</svg>
