<svg width="16" height="22" viewBox="0 0 16 22" fill="none" xmlns="http://www.w3.org/2000/svg">
<g opacity="0.1">
<path d="M0.23581 2.63272H3.88055L4.20214 0.16716H6.13171L6.29251 2.63272H8.22208V0.16716H10.1516L10.366 2.63272H11.0628C16.0368 4.60517 14.3502 8.52862 12.8852 10.2438C18.4595 13.1381 14.8148 19.5164 12.2956 19.302L10.0444 19.5164V21.8748H8.06128V19.5164H6.18531V21.8748H4.14855V19.5164H0.0750122V16.5149H2.00458V5.58067H0.23581V2.63272Z" fill="#C4C4C4"/>
<path d="M0.23581 2.63272H3.88055L4.20214 0.16716H6.13171L6.29251 2.63272H8.22208V0.16716H10.1516L10.366 2.63272H11.0628C16.0368 4.60517 14.3502 8.52862 12.8852 10.2438C18.4595 13.1381 14.8148 19.5164 12.2956 19.302L10.0444 19.5164V21.8748H8.06128V19.5164H6.18531V21.8748H4.14855V19.5164H0.0750122V16.5149H2.00458V5.58067H0.23581V2.63272Z" fill="url(#paint0_linear_225_38669)"/>
</g>
<defs>
<linearGradient id="paint0_linear_225_38669" x1="2.23093" y1="3.88801" x2="17.3965" y2="14.0853" gradientUnits="userSpaceOnUse">
<stop stop-color="#00FFA3" stop-opacity="0.6"/>
<stop offset="1" stop-color="#4B48F1"/>
</linearGradient>
</defs>
</svg>
